<?xml version="1.0" encoding="UTF-8" standalone="no"?>
<!-- Created with Inkscape (http://www.inkscape.org/) -->

<svg
   width="32"
   height="32"
   viewBox="0 0 8.4666666 8.4666666"
   version="1.1"
   id="svg5"
   inkscape:version="1.2.2 (b0a8486541, 2022-12-01)"
   sodipodi:docname="microbin-logo.svg"
   inkscape:export-filename="microbin-logo-exp.svg"
   inkscape:export-xdpi="144"
   inkscape:export-ydpi="144"
   xmlns:inkscape="http://www.inkscape.org/namespaces/inkscape"
   xmlns:sodipodi="http://sodipodi.sourceforge.net/DTD/sodipodi-0.dtd"
   xmlns="http://www.w3.org/2000/svg"
   xmlns:svg="http://www.w3.org/2000/svg">
  <sodipodi:namedview
     id="namedview7"
     pagecolor="#4a4a55"
     bordercolor="#eeeeee"
     borderopacity="1"
     inkscape:showpageshadow="0"
     inkscape:pageopacity="0"
     inkscape:pagecheckerboard="0"
     inkscape:deskcolor="#505050"
     inkscape:document-units="mm"
     showgrid="true"
     inkscape:zoom="19.556004"
     inkscape:cx="6.0339524"
     inkscape:cy="16.721207"
     inkscape:window-width="2560"
     inkscape:window-height="1036"
     inkscape:window-x="0"
     inkscape:window-y="44"
     inkscape:window-maximized="1"
     inkscape:current-layer="layer1">
    <inkscape:grid
       type="xygrid"
       id="grid182"
       visible="true" />
  </sodipodi:namedview>
  <defs
     id="defs2" />
  <g
     inkscape:label="Layer 1"
     inkscape:groupmode="layer"
     id="layer1">
    <g
       id="g14438"
       inkscape:label="Box">
      <path
         style="color:#000000;fill:#f7f7ff;-inkscape-stroke:none"
         d="M 1.984375,3.8066406 V 6.2207031 L 4.2324219,7.34375 4.2929687,7.3144531 6.4824219,6.2207031 V 3.8066406 l -2.25,1.125 z m 0.2636719,0.4296875 1.984375,0.9921875 1.984375,-0.9921875 V 6.0566406 L 4.2324219,7.0488281 2.2480469,6.0566406 Z"
         id="path2056" />
      <path
         id="path3512"
         style="color:#000000;fill:#f7f7ff;-inkscape-stroke:none;fill-opacity:1"
         d="M 4.3651082 5.3087199 L 4.2322998 5.3748657 L 4.1015584 5.3097534 L 4.1015584 6.8357585 L 4.2343669 6.9024211 L 4.3651082 6.836792 L 4.3651082 5.3087199 z " />
    </g>
    <g
       id="g18197"
       inkscape:label="Cat"
       style="display:inline">
      <path
         id="path14440"
         style="color:#000000;display:inline;fill:#f7f7ff;-inkscape-stroke:none;fill-opacity:1"
         d="M 4.6663818,2.8716593 4.3862956,3.0959351 h 0.045475 L 5.4063883,3.291272 5.709729,4.0462646 5.9464071,3.9279256 5.5996582,3.058728 Z M 2.6199951,2.9434896 2.4618652,3.8989868 2.7088786,4.0230103 2.8571899,3.1331421 Z" />
      <path
         style="color:#000000;fill:#f7f7ff;-inkscape-stroke:none"
         d="m 2.1308594,1.0234375 0.2773437,1.109375 v 0.4707031 l 1.1894532,0.953125 0.083984,-0.066406 1.1074219,-0.8867188 V 2.1328125 L 5.0664062,1.0234375 3.9902344,1.5605469 H 3.2070313 Z M 2.5273438,1.5175781 3.1445313,1.8261719 H 4.0527344 L 4.6699219,1.5175781 4.5234375,2.0996094 V 2.4765625 L 3.5976563,3.2167969 2.671875,2.4765625 V 2.0996094 Z"
         id="path14903" />
    </g>
    <path
       id="path22977"
       style="color:#000000;fill:#f7f7ff;-inkscape-stroke:none;fill-opacity:1"
       d="M 5.94434,3.5646403 6.0657796,3.8684977 6.3086589,3.7470581 Z m -3.5723918,0.074414 -0.2149739,0.1074869 0.181901,0.090951 z"
       sodipodi:nodetypes="cccccccc" />
  </g>
</svg>
